<svg xmlns="http://www.w3.org/2000/svg" viewBox="170 114 516 516">
<g transform="translate(0,852) scale(0.1,-0.1)" stroke="none">
    <path fill="#1f2937" d="M4180 6393 c-379 -26 -684 -133 -972 -340 -89 -64 -236 -198 -315 -286 -160 -180 -305 -450 -374 -698 -20 -73 -49 -213 -49 -237 0 -8 89 73 198 178 205 201 268 249 360 282 63 22 200 27 255 9 28 -10 41 -8 78 9 24 11 61 20 82 20 60 0 233 -96 320 -178 29 -29 37 -43 37 -72 -1 -19 -7 -46 -15 -60 -11 -20 -11 -28 -1 -40 7 -8 21 -35 30 -60 17 -43 26 -50 186 -147 92 -57 172 -103 177 -103 5 0 22 14 39 31 56 60 170 145 244 181 250 122 481 138 850 59 196 -42 345 -19 421 67 50 57 69 122 69 232 0 128 -52 305 -140 480 -54 107 -275 305 -470 422 -233 139 -508 225 -789 247 -74 6 -144 10 -155 9 -12 -1 -41 -3 -66 -5z"/>
    <path fill="#1f2937" d="M5790 5556 c0 -4 5 -16 11 -27 6 -11 25 -66 42 -122 26 -87 31 -118 31 -212 1 -100 -2 -116 -27 -170 -88 -189 -275 -249 -627 -199 -185 26 -390 6 -538 -53 -125 -51 -323 -206 -296 -233 6 -6 107 -69 224 -140 l213 -129 66 6 c57 5 71 10 101 39 22 21 46 34 62 34 37 0 210 -90 281 -146 64 -50 84 -85 88 -154 2 -35 11 -54 37 -84 19 -21 48 -68 66 -105 29 -63 31 -72 31 -186 -1 -116 -3 -126 -53 -289 -28 -93 -50 -171 -49 -172 5 -5 192 185 228 231 108 136 223 338 284 500 68 180 115 443 115 645 0 247 -67 540 -174 765 -49 102 -116 219 -116 201z"/>
    <path fill="#1f2937" d="M3289 4975 c-34 -52 -70 -97 -80 -100 -14 -5 -52 12 -119 50 -69 39 -105 55 -119 50 -22 -7 -111 -146 -111 -173 0 -28 19 -45 103 -97 107 -66 111 -76 56 -167 -72 -122 -73 -125 -55 -153 24 -36 151 -109 178 -101 15 4 45 40 83 98 55 85 63 93 90 92 17 -1 64 -22 106 -48 113 -68 123 -66 193 52 52 86 47 98 -59 162 -122 74 -124 82 -53 198 54 89 60 105 42 131 -20 28 -144 101 -172 101 -18 0 -37 -22 -83 -95z"/>
    <path fill="#e07272" d="M4963,4040 c-89,-54 -82,-200 11,-244 c98,-46 206,18 206,123 c0,84 -56,141 -140,141 c-27,0 -58,-8 -77,-20"/>
    <path fill="#e07272" d="M4580,3952 c-37,-20 -80,-89 -80,-130 c0,-45 39,-102 83,-123 c54,-24 71,-24 123,2 c108,52 106,209 -3,254 c-47,20 -81,19 -123,-3"/>
    <path fill="#e07272" d="M5071,3653 c-68,-34 -95,-114 -62,-187 c16,-38 29,-51 66,-67 c81,-36 160,-4 190,76 c48,125 -74,237 -194,178"/>
    <path fill="#e07272" d="M4663,3550 c-114,-69 -63,-260 70,-260 c85,0 147,59 147,139 c0,84 -56,141 -140,141 c-27,0 -58,-8 -77,-20"/>
  </g>
</svg>
